<?xml version="1.0" encoding="utf-8"?>
<!-- Generator: Adobe Illustrator 28.3.0, SVG Export Plug-In . SVG Version: 6.00 Build 0)  -->
<svg version="1.1" id="Layer_1" xmlns="http://www.w3.org/2000/svg" xmlns:xlink="http://www.w3.org/1999/xlink" x="0px" y="0px"
	 viewBox="0 0 218.9 59.3" style="enable-background:new 0 0 218.9 59.3;" xml:space="preserve">
<path d="M37.9,4.7c0-1.6-0.7-2.6-2.5-2.6c-6,0-13.6,10.9-16.3,15.4c-3.7,6.1-8,15.4-8,22.8c0,2.9,1.2,5,4.3,5
	c6.5,0,11.6-8.5,11.6-14.2c0.1-1.3-0.2-2.5-0.9-3.6c0.8-1,1.9-1.6,3.2-1.5c2.2,0,3.3,1.4,3.3,3.9c0,8-8.4,18.4-18.5,18.4
	C6.5,48.3,2.4,44.4,2.4,37c0-15.1,15.9-37,33.3-37c4.1,0,8.2,1.2,8.2,5.7c0,5.9-6,10.1-11.1,11.8c-2.3,0.7-4.6,1.1-7,1.1
	c-1.4,0-2.7-0.1-4-0.4l0.1-0.6C28.2,17.4,37.9,11.2,37.9,4.7z M208.3,13.5L208,13c1.7-1.5,3.5-4.2,3.5-6.6c0.1-1.6-0.9-3-2.4-3.4
	c0.8-1.3,2.3-2.1,3.8-2.1c2-0.2,3.8,1.3,3.9,3.4c0,0.2,0,0.4,0,0.6C216.9,9.2,211.7,12.2,208.3,13.5z M0,4.9c-0.1-2.1,1.5-3.9,3.6-4
	c0.2,0,0.4,0,0.6,0c1.4,0,2.9,0.8,3.6,2.1C6.3,3.4,5.3,4.8,5.4,6.4c0,2.4,1.8,5.1,3.5,6.6l-0.3,0.5C5.2,12.2,0,9.2,0,4.9z
	 M195.5,40.6l0.6,0.4c-1.6,3.4-4,7.1-8.1,7.1c-3.2,0-5-2-5-5.3c0-2.8,1.7-6.6,2.8-9.1L200,1.3h6.5l-15.4,36
	c-0.7,1.4-1.1,2.9-1.3,4.4c-0.1,0.8,0.5,1.4,1.2,1.5c0.1,0,0.2,0,0.3,0C193.1,43.3,194.3,42.1,195.5,40.6z M181.1,40.6l0.6,0.4
	c-1.6,3.4-4.1,7.1-8.1,7.1c-3.2,0-5-2-5-5.3c0-2.8,1.7-6.6,2.8-9.1l14.2-32.4h6.5l-15.4,36c-0.7,1.4-1.1,2.9-1.3,4.4
	c-0.1,0.8,0.5,1.4,1.2,1.5c0.1,0,0.2,0,0.3,0C178.7,43.3,180,42,181.1,40.6z M89.6,48.1c-2.9,0-4.5-1.7-4.5-4.7
	c0-4.8,6.6-14.6,6.6-17.8c0.1-0.8-0.5-1.5-1.3-1.6c-0.1,0-0.2,0-0.3,0c-2.7,0-4.7,4.3-5.7,6.6l-6.9,16.8h-6.7l7.8-18.9
	c0.4-0.9,0.7-1.9,0.8-2.8c0.1-0.8-0.5-1.5-1.3-1.6c-0.1,0-0.2,0-0.3,0c-2.7,0-4.8,4.3-5.7,6.5l-6.9,16.9h-6.7L69.4,21h6.3l-1.4,3.4
	c1.9-2.1,4.3-3.9,7.3-3.9c2.3-0.2,4.3,1.5,4.5,3.8c0,0.1,0,0.2,0,0.3c2.1-2.3,4.5-4.1,7.6-4.1c2.7,0,4.7,1.6,4.7,4.3
	c0,5.1-6.4,13.9-6.4,17.3c-0.1,0.6,0.3,1.2,1,1.3c0.1,0,0.2,0,0.3,0c1.5,0,2.7-1.5,3.7-2.6l0.6,0.4C95.9,44.7,93.7,48.1,89.6,48.1z
	 M215.2,20.7c-0.7,1.3-1,2.8-1,4.3c0,3.2,0.8,6.8,0.8,11.6c0,7-4.5,11.5-11.3,11.5c-4.1,0-6.3-1.7-6.3-3.7c0-0.9,0.6-1.8,1.5-2.1
	c0.6,1.4,1.7,2.4,3.9,2.4c4.3,0,5.8-3.9,5.8-7.5c0-3.2-0.2-5.9-0.2-9c0-0.4,0.1-1.3,0.1-1.3c-1.6,1.3-5,5.8-6.3,7.2l-0.6-0.4
	c1.9-3.7,4.1-7.3,6.6-10.8c1.3-1.6,3.2-2.6,5.3-2.5C214,20.4,214.6,20.5,215.2,20.7z M58.3,40.6c-1,1.2-2.3,2.6-3.7,2.6
	c-0.8,0-1.2-0.5-1.2-1.3c0-1.2,0.7-2.9,1.6-4.9c1.7-4,5.7-13.2,6.9-16.2h-6.4l-0.8,2c-0.7-1.8-2.4-2.5-4.4-2.5
	c-5.4,0-9.5,3.9-12.2,8.1c-2.3,3.6-5,9.3-5,13.6c0,3.5,1.7,5.9,5.2,5.9c3.9,0,6.8-3.4,8.7-6.5c-0.1,0.6-0.1,1.2-0.1,1.8
	c0,2.9,1.4,4.8,4.2,4.8c4.1,0,6.3-3.8,7.8-7.1L58.3,40.6z M51.5,29.8c-3,6.3-6.4,13.5-9.5,13.5c-1.2,0-1.7-0.7-1.7-2.1
	c0-4.4,6.6-18.4,11.2-18.4c0.9-0.1,1.6,0.5,1.7,1.4c0,0.1,0,0.3,0,0.4C53.2,26,52.3,28,51.5,29.8z M145.6,20.4
	c-2.7,0.1-5.2,1.2-7,3.2c1.6-3.5,9.1-20.8,13.3-20.8c0.6-0.1,1.2,0.4,1.3,1.1c0,0.1,0,0.2,0,0.3c0,2.9-4.1,8.3-7.6,10.8l0.3,0.5
	c4.7-1.6,12-5.7,12-11.3c0-2.2-1.6-3.6-4.3-3.6c-4.9,0-9.3,4.4-12.8,8.7c-6.8,8.5-15.3,23.4-15.3,32.6c0,3.8,2.3,6.3,6.8,6.3
	c9.2,0,18.3-13.6,18.3-22C150.6,22.9,149.1,20.4,145.6,20.4z M133.9,44.4c-1.3,0-1.6-0.8-1.6-2c0.1-2,0.5-3.9,1.2-5.8
	c1.7-5.7,5-12.8,8.2-12.8c1.4,0,2,1.1,2,2.6C143.6,31.1,138.1,44.4,133.9,44.4z M168.4,25.7c0.5-1.5,0.1-3.5-2.5-3.5
	c-2.3,0-4.3,1.8-4.3,4.1c0,0.1,0,0.2,0,0.3c0,2.2,1.3,3.5,4,4.3l-0.2,0.8c-4.6,0.6-9,3.3-9,7.9c0,2.3,1.2,3.7,4,3.7
	c2.2,0,4.3-0.8,6-2.1l0.5,0.4c-2.1,3.9-6.1,6.3-10.5,6.3c-4.3,0-7.2-2.3-7.2-6.3c0-4.9,3.4-8.1,9.2-9.9c-1.8-0.8-2.9-2.5-3-4.4
	c0-4.9,5.8-7.1,10.8-7.1c3.4,0,6.3,1,6.3,3.2C172.4,25.3,170.1,25.9,168.4,25.7z M120.3,20.4c-2.6,0.1-5.1,1.3-6.8,3.3l2.9-7.1h-6.6
	L92.2,59.3h6.6l6.3-15.3c0.4,2.5,2.3,4,5.1,4c8.8,0,15-14.7,15-22.1C125.2,22.8,123.7,20.4,120.3,20.4z M114.1,38.9
	c-1.2,2.2-3.1,5.2-5.5,5.2c-1.1,0.1-2-0.7-2.1-1.8c0-0.1,0-0.3,0-0.4c0.1-1.3,0.5-2.6,1-3.8l3.4-8.2c1-2.5,3.1-6,5.5-6
	c1.4,0,1.9,1,1.9,2.6C118.3,29.7,115.7,36.1,114.1,38.9z"/>
</svg>
