<svg version="1.2" xmlns="http://www.w3.org/2000/svg" viewBox="0 0 48 48" width="48" height="48">
	<style>
		.s0 { opacity: .99;fill: #f0adcd } 
	</style>
	<path id="Path 0" fill-rule="evenodd" class="s0" d="m47.5 0.5v47h-47l-0.16-22.48c-0.09-12.36 0.02-23.06 0.24-23.77 0.32-1.01 5.35-1.23 46.92-0.75zm-40.7 10.7c0.11 0.99 1.1 2.25 2.2 2.8 1.56 0.78 2.44 0.56 4-1 1.56-1.56 1.78-2.44 1-4-0.55-1.1-1.81-2-2.8-2-0.99 0-2.43 0.54-3.2 1.2-0.77 0.66-1.31 2.01-1.2 3zm1.2 28.8h6v-22h-6zm11 0c5.97 0 6-0.06 6-5.5 0-3.02 0.38-6.51 0.85-7.75 0.46-1.24 1.59-2.59 2.5-3 0.91-0.41 2.55-0.3 3.65 0.25 1.73 0.87 2 2 2 8.5v7.5h6c0-16.67-0.3-18.3-2-20-1.15-1.15-3.38-2.02-5.25-2.04-1.79-0.03-3.93 0.67-4.75 1.54-0.83 0.87-1.84 1.57-2.25 1.54-0.41-0.02-0.75-0.72-0.75-1.54q0-1.5-3-1.5h-3z"/>
</svg>